<?xml version="1.0" standalone="no"?>
<!DOCTYPE svg PUBLIC "-//W3C//DTD SVG 20010904//EN"
 "http://www.w3.org/TR/2001/REC-SVG-20010904/DTD/svg10.dtd">
<svg version="1.0" xmlns="http://www.w3.org/2000/svg"
 width="3543.000000pt" height="3543.000000pt" viewBox="0 0 3543.000000 3543.000000"
 preserveAspectRatio="xMidYMid meet">
<metadata>
Created by potrace 1.14, written by Peter Selinger 2001-2017
</metadata>
<g transform="translate(0.000000,3543.000000) scale(0.100000,-0.100000)"
fill="#000000" stroke="none">
<path d="M17325 29780 c-229 -8 -631 -34 -705 -45 l-35 -6 -33 -122 c-472
-1767 -727 -3270 -814 -4802 -17 -299 -17 -1144 0 -1350 102 -1264 419 -2287
1095 -3540 250 -464 512 -892 1152 -1885 725 -1125 1028 -1627 1362 -2255 546
-1027 940 -2042 1208 -3111 188 -753 271 -1342 325 -2319 18 -311 24 -1289 11
-1730 -22 -751 -60 -1414 -130 -2260 -15 -181 -26 -332 -24 -334 5 -6 72 11
333 86 1618 462 3128 1263 4435 2353 368 307 851 766 1166 1110 1603 1749
2650 3906 3024 6225 170 1060 198 2171 80 3245 -234 2128 -1027 4139 -2310
5860 -1304 1747 -3028 3095 -5050 3947 -1269 535 -2674 853 -4070 922 -304 16
-753 20 -1020 11z"/>
<path d="M15390 29560 c-1246 -243 -2417 -665 -3520 -1268 -1904 -1041 -3502
-2583 -4608 -4447 -309 -522 -605 -1122 -827 -1680 -487 -1225 -763 -2493
-835 -3845 -14 -254 -14 -954 0 -1207 91 -1698 503 -3273 1246 -4763 942
-1887 2363 -3495 4134 -4677 1693 -1129 3664 -1816 5700 -1988 495 -41 1273
-54 1705 -27 360 23 870 73 988 98 l27 6 0 461 c-1 1566 -123 2973 -361 4147
-290 1428 -742 2557 -1490 3717 -160 247 -331 494 -763 1098 -726 1015 -1058
1539 -1370 2164 -541 1079 -908 2291 -1135 3741 -261 1670 -201 3362 180 5085
235 1061 618 2204 1079 3220 45 99 84 186 87 193 8 18 -19 15 -237 -28z"/>
</g>
</svg>
